<svg width="327" height="90" viewBox="0 0 327 90" fill="none" xmlns="http://www.w3.org/2000/svg">
<path d="M130.291 48.2182V58.0076H123.541V30.1H134.475C137.791 30.1 140.317 30.9289 142.054 32.5868C143.791 34.2184 144.659 36.4289 144.659 39.2183C144.659 40.9551 144.265 42.5078 143.475 43.8762C142.712 45.2183 141.567 46.2841 140.041 47.0735C138.515 47.8367 136.659 48.2182 134.475 48.2182H130.291ZM133.725 42.8104C136.436 42.8104 137.791 41.613 137.791 39.2183C137.791 36.771 136.436 35.5473 133.725 35.5473H130.291V42.8104H133.725ZM160.928 58.0076L154.889 47.4683H153.349V58.0076H146.599V30.1H158.125C160.336 30.1 162.204 30.4815 163.731 31.2447C165.257 32.0078 166.402 33.0605 167.165 34.4026C167.928 35.7183 168.309 37.2315 168.309 38.942C168.309 40.9683 167.744 42.692 166.612 44.113C165.507 45.5341 163.888 46.5077 161.757 47.034L168.388 58.0076H160.928ZM153.349 42.8499H157.533C158.875 42.8499 159.862 42.5604 160.494 41.9815C161.125 41.3762 161.441 40.4946 161.441 39.3367C161.441 38.2315 161.112 37.3631 160.454 36.7315C159.823 36.0999 158.849 35.7841 157.533 35.7841H153.349V42.8499ZM183.576 29.6658C186.207 29.6658 188.589 30.2842 190.72 31.521C192.878 32.7315 194.575 34.4289 195.812 36.6131C197.049 38.7709 197.668 41.2183 197.668 43.9551C197.668 46.6919 197.036 49.1525 195.773 51.3366C194.536 53.5208 192.839 55.2314 190.681 56.4682C188.549 57.6787 186.181 58.284 183.576 58.284C180.97 58.284 178.589 57.6787 176.431 56.4682C174.299 55.2314 172.602 53.5208 171.339 51.3366C170.102 49.1525 169.484 46.6919 169.484 43.9551C169.484 41.2183 170.102 38.7709 171.339 36.6131C172.602 34.4289 174.299 32.7315 176.431 31.521C178.589 30.2842 180.97 29.6658 183.576 29.6658ZM183.576 35.942C181.365 35.942 179.602 36.6657 178.286 38.1131C176.997 39.5341 176.352 41.4815 176.352 43.9551C176.352 46.4025 176.997 48.3498 178.286 49.7972C179.602 51.2445 181.365 51.9682 183.576 51.9682C185.76 51.9682 187.51 51.2445 188.825 49.7972C190.141 48.3498 190.799 46.4025 190.799 43.9551C190.799 41.5078 190.141 39.5604 188.825 38.1131C187.536 36.6657 185.786 35.942 183.576 35.942ZM205.288 30.1L212.117 51.0998L218.946 30.1H226.17L216.459 58.0076H207.736L198.065 30.1H205.288ZM234.126 30.1V58.0076H227.376V30.1H234.126ZM257.457 50.1524C257.457 51.6261 257.076 52.9814 256.313 54.2182C255.576 55.455 254.471 56.4419 252.997 57.1787C251.55 57.9155 249.786 58.284 247.707 58.284C244.576 58.284 241.997 57.5208 239.971 55.9945C237.944 54.4682 236.839 52.3366 236.655 49.5998H243.839C243.944 50.6524 244.313 51.4814 244.944 52.0866C245.602 52.6919 246.431 52.9945 247.431 52.9945C248.3 52.9945 248.984 52.7577 249.484 52.284C249.984 51.8103 250.234 51.1788 250.234 50.3893C250.234 49.6788 249.997 49.0867 249.523 48.613C249.076 48.1393 248.51 47.7577 247.826 47.4683C247.142 47.1525 246.194 46.784 244.984 46.363C243.221 45.7577 241.773 45.1788 240.642 44.6262C239.536 44.0472 238.576 43.2051 237.76 42.0999C236.971 40.9683 236.576 39.5078 236.576 37.7183C236.576 36.0604 236.997 34.6262 237.839 33.4157C238.681 32.2052 239.839 31.2842 241.313 30.6526C242.813 29.9947 244.523 29.6658 246.444 29.6658C249.55 29.6658 252.01 30.4026 253.826 31.8763C255.668 33.3499 256.707 35.3762 256.944 37.9552H249.642C249.51 37.0341 249.168 36.3104 248.615 35.7841C248.089 35.2315 247.365 34.9552 246.444 34.9552C245.655 34.9552 245.01 35.1657 244.51 35.5868C244.036 36.0078 243.8 36.6262 243.8 37.442C243.8 38.0999 244.01 38.6657 244.431 39.1394C244.879 39.5867 245.431 39.9552 246.089 40.2446C246.747 40.5341 247.694 40.9025 248.931 41.3499C250.721 41.9551 252.181 42.5604 253.313 43.1657C254.444 43.7446 255.418 44.5999 256.234 45.7314C257.049 46.863 257.457 48.3367 257.457 50.1524ZM266.558 30.1V58.0076H259.808V30.1H266.558ZM283.099 29.6658C285.731 29.6658 288.112 30.2842 290.244 31.521C292.402 32.7315 294.099 34.4289 295.336 36.6131C296.573 38.7709 297.191 41.2183 297.191 43.9551C297.191 46.6919 296.56 49.1525 295.297 51.3366C294.06 53.5208 292.362 55.2314 290.205 56.4682C288.073 57.6787 285.705 58.284 283.099 58.284C280.494 58.284 278.113 57.6787 275.955 56.4682C273.823 55.2314 272.126 53.5208 270.863 51.3366C269.626 49.1525 269.007 46.6919 269.007 43.9551C269.007 41.2183 269.626 38.7709 270.863 36.6131C272.126 34.4289 273.823 32.7315 275.955 31.521C278.113 30.2842 280.494 29.6658 283.099 29.6658ZM283.099 35.942C280.889 35.942 279.126 36.6657 277.81 38.1131C276.52 39.5341 275.876 41.4815 275.876 43.9551C275.876 46.4025 276.52 48.3498 277.81 49.7972C279.126 51.2445 280.889 51.9682 283.099 51.9682C285.284 51.9682 287.034 51.2445 288.349 49.7972C289.665 48.3498 290.323 46.4025 290.323 43.9551C290.323 41.5078 289.665 39.5604 288.349 38.1131C287.06 36.6657 285.31 35.942 283.099 35.942ZM324.391 58.0076H317.641L306.352 40.8762V58.0076H299.602V30.1H306.352L317.641 47.3893V30.1H324.391V58.0076Z" fill="white"/>
<path d="M17.9639 30.9108L11.183 56.2261H0.0322266L6.96381 30.9108H17.9639Z" fill="url(#paint0_linear_330_148)"/>
<path d="M32.7312 9.66401L11.7858 89.0758H22.0325L43.1286 9.66401H32.7312Z" fill="url(#paint1_linear_330_148)"/>
<path d="M55.7862 0.924194L38.1559 66.3221H48.4026L65.8822 0.924194H55.7862Z" fill="url(#paint2_linear_330_148)"/>
<path d="M76.581 0.924194L61.9644 56.8289H72.2111L86.677 0.924194H76.581Z" fill="url(#paint3_linear_330_148)"/>
<path d="M91.951 15.3901L84.266 47.3356H94.814L102.65 15.3901H91.951Z" fill="url(#paint4_linear_330_148)"/>
<defs>
<linearGradient id="paint0_linear_330_148" x1="166.239" y1="12.075" x2="111.323" y2="115.65" gradientUnits="userSpaceOnUse">
<stop stop-color="#6778F4"/>
<stop offset="0.868195" stop-color="#5CC59E"/>
</linearGradient>
<linearGradient id="paint1_linear_330_148" x1="166.239" y1="12.075" x2="111.323" y2="115.65" gradientUnits="userSpaceOnUse">
<stop stop-color="#6778F4"/>
<stop offset="0.868195" stop-color="#5CC59E"/>
</linearGradient>
<linearGradient id="paint2_linear_330_148" x1="166.239" y1="12.075" x2="111.323" y2="115.65" gradientUnits="userSpaceOnUse">
<stop stop-color="#6778F4"/>
<stop offset="0.868195" stop-color="#5CC59E"/>
</linearGradient>
<linearGradient id="paint3_linear_330_148" x1="166.239" y1="12.075" x2="111.323" y2="115.65" gradientUnits="userSpaceOnUse">
<stop stop-color="#6778F4"/>
<stop offset="0.868195" stop-color="#5CC59E"/>
</linearGradient>
<linearGradient id="paint4_linear_330_148" x1="166.239" y1="12.075" x2="111.323" y2="115.65" gradientUnits="userSpaceOnUse">
<stop stop-color="#6778F4"/>
<stop offset="0.868195" stop-color="#5CC59E"/>
</linearGradient>
</defs>
</svg>
